<svg width="50" height="50" viewBox="0 0 50 50" fill="none" xmlns="http://www.w3.org/2000/svg">
<g filter="url(#filter0_d_1503_43)">
<path d="M16.5017 24.8867C16.4995 24.2314 16.4819 23.5972 16.479 22.9902C16.4379 23.6561 16.4459 24.2878 16.5017 24.8867ZM26.2558 33.4482L26.2509 33.4487C26.2509 33.4487 26.2537 33.4487 26.2558 33.4482Z" fill="#B6E7FC"/>
<path d="M24.9954 3C13.9505 3 5 11.9504 5 23C5 30.3825 8.99935 36.8304 14.9495 40.2954C15.5506 38.6032 16.5295 37.2243 17.7494 36.1623C18.7165 35.3122 19.8586 34.6416 21.1372 34.1828C18.8125 32.1587 18.7445 31.6076 19.5428 31.6836C18.8038 31.1093 18.1766 30.404 17.6927 29.6029C7.43962 28.8332 15.9072 8.70199 25.0093 13.4867C28.8547 11.4645 32.5482 13.8652 34.7899 17.3807C37.884 22.186 38.2656 29.0785 32.5249 29.5941C32.0005 30.4655 31.3262 31.1911 30.5518 31.7718C30.9478 31.9051 30.779 32.5557 29.4338 34.1926H29.4235C30.6984 34.6533 31.8371 35.3249 32.8011 36.1753C33.869 37.1086 34.7508 38.2858 35.3553 39.7035C35.3607 39.7162 35.3656 39.7293 35.3711 39.742C35.4111 39.8369 35.4513 39.9317 35.4889 40.0288C41.1943 36.5059 44.9955 30.1973 44.9955 23C44.9956 11.9504 36.0449 3 24.9954 3Z" fill="#B6E7FC"/>
<path d="M17.749 36.1623C16.5291 37.2241 15.5503 38.603 14.9492 40.2954C15.5363 38.667 16.4956 37.264 17.749 36.1623ZM35.4865 40.0298L35.4886 40.0285C35.4512 39.9313 35.4108 39.8366 35.3708 39.7417C35.4113 39.8366 35.4487 39.9333 35.4865 40.0298ZM26.236 33.4497C26.2408 33.4498 26.2455 33.4493 26.2502 33.4482L26.255 33.4478C26.5903 33.3776 29.7443 31.4998 30.5513 31.7717C31.3257 31.1909 32 30.4653 32.5244 29.5939C32.3298 29.6113 32.1289 29.6224 31.9199 29.6248C33.2809 27.6502 33.9683 25.2235 33.5623 22.04L25.1011 22.0815H24.9995L16.5659 22.04C16.5263 22.3555 16.4971 22.6722 16.4782 22.9896C16.4811 23.5965 16.4985 24.2306 16.501 24.8861C16.6733 26.7367 17.2852 28.2853 18.2083 29.6247C18.0362 29.6227 17.8641 29.6152 17.6924 29.6024C18.1763 30.4035 18.8034 31.1088 19.5425 31.6831C20.7806 31.8009 24.1027 33.4274 24.3215 33.4077C25.0965 33.5051 25.4517 33.4727 26.236 33.4497ZM35.355 39.7033C34.7503 38.2857 33.8685 37.1086 32.8008 36.1751C33.8937 37.1392 34.7632 38.3314 35.355 39.7033Z" fill="#FCE9EA"/>
<path d="M35.3545 39.7031C34.7627 38.3312 33.8931 37.139 32.8003 36.175C31.8363 35.3245 30.6976 34.653 29.4227 34.1922L21.1423 34.1877C21.1404 34.1859 21.1385 34.1843 21.1366 34.1826C19.8579 34.6414 18.7158 35.312 17.7487 36.1621C16.4951 37.264 15.5363 38.6672 14.9492 40.2954C17.901 42.0143 21.3324 42.9997 24.9946 42.9997C28.8431 42.9997 32.4364 41.9123 35.486 40.0298C35.449 39.9331 35.4105 39.8371 35.3703 39.7417L35.3545 39.7031Z" fill="#3B9CBD"/>
<path d="M29.423 34.1924H29.4333C30.7786 32.5556 30.9473 31.905 30.5513 31.7717C29.7443 31.4999 26.5902 33.3777 26.255 33.4478C26.2529 33.4483 26.2502 33.4483 26.2502 33.4483C26.2455 33.4493 26.2408 33.4498 26.236 33.4498C25.4518 33.4729 25.0965 33.5051 24.3214 33.4081C24.1027 33.4278 20.7806 31.8013 19.5425 31.6835C18.7443 31.6075 18.8122 32.1588 21.1369 34.1827C21.1387 34.1844 21.1406 34.1861 21.1426 34.1877L29.423 34.1924Z" fill="#C9CACA"/>
<path d="M34.7904 17.3802C32.5487 13.8647 28.8551 11.464 25.0098 13.4861C28.8299 11.4778 32.5322 13.8729 34.7904 17.3802Z" fill="#C4BFFF"/>
<path d="M16.502 24.8861C16.4463 24.287 16.4382 23.6553 16.4792 22.9896C16.4983 22.68 16.5256 22.3649 16.567 22.0401L25.0005 22.0811V13.4864H25.0098C15.9078 8.70168 7.4403 28.8327 17.6933 29.6026C17.8602 29.6151 18.0323 29.6228 18.2092 29.6249C17.2862 28.2853 16.6742 26.7368 16.502 24.8861Z" fill="#C4BFFF"/>
<path d="M25 22.0815L25.1016 22.082L33.5628 22.0405C33.9688 25.2239 33.2814 27.6507 31.9204 29.6253C32.1222 29.6227 32.3239 29.6124 32.5249 29.5944C38.2656 29.0787 37.884 22.1863 34.7899 17.381C32.5317 13.8737 28.8294 11.4786 25.0093 13.4869H25V22.0815Z" fill="#B2ABFF"/>
</g>
<defs>
<filter id="filter0_d_1503_43" x="0" y="0" width="49.9955" height="49.9997" filterUnits="userSpaceOnUse" color-interpolation-filters="sRGB">
<feFlood flood-opacity="0" result="BackgroundImageFix"/>
<feColorMatrix in="SourceAlpha" type="matrix" values="0 0 0 0 0 0 0 0 0 0 0 0 0 0 0 0 0 0 127 0" result="hardAlpha"/>
<feOffset dy="2"/>
<feGaussianBlur stdDeviation="2.5"/>
<feComposite in2="hardAlpha" operator="out"/>
<feColorMatrix type="matrix" values="0 0 0 0 0.00392157 0 0 0 0 0.0862745 0 0 0 0 0.168627 0 0 0 0.15 0"/>
<feBlend mode="normal" in2="BackgroundImageFix" result="effect1_dropShadow_1503_43"/>
<feBlend mode="normal" in="SourceGraphic" in2="effect1_dropShadow_1503_43" result="shape"/>
</filter>
</defs>
</svg>
